<svg width="11" height="8" viewBox="0 0 11 8" fill="none" xmlns="http://www.w3.org/2000/svg">
<path d="M5.3833 7.49994C3.67221 7.49994 0.250024 7.09691 0.250024 5.4848C0.250024 3.87269 3.67221 3.73835 5.3833 3.87269" stroke="white" stroke-width="0.5" stroke-linecap="round"/>
<path d="M4.28335 5.29996L5.75 3.83331L4.28335 2" stroke="white" stroke-width="0.5" stroke-linecap="round"/>
<path d="M7.87287 5.04972C7.62192 5.04972 7.3982 5.00355 7.2017 4.91122C7.00639 4.81889 6.85133 4.69164 6.73651 4.52947C6.62169 4.36731 6.56191 4.18146 6.55717 3.97195H7.30291C7.3112 4.11281 7.37038 4.22704 7.48047 4.31463C7.59055 4.40223 7.72135 4.44602 7.87287 4.44602C7.99361 4.44602 8.10014 4.41939 8.19247 4.36612C8.28598 4.31167 8.35878 4.23651 8.41087 4.14062C8.46413 4.04356 8.49077 3.93229 8.49077 3.80682C8.49077 3.67898 8.46354 3.56652 8.40909 3.46946C8.35582 3.3724 8.28184 3.29664 8.18714 3.24219C8.09245 3.18774 7.98414 3.15992 7.86222 3.15874C7.75568 3.15874 7.65211 3.18063 7.55149 3.22443C7.45206 3.26823 7.37453 3.32801 7.31889 3.40376L6.6353 3.28125L6.80753 1.36364H9.03054V1.99219H7.44141L7.3473 2.90305H7.36861C7.43253 2.81309 7.529 2.73852 7.65803 2.67933C7.78705 2.62015 7.93146 2.59055 8.09126 2.59055C8.31025 2.59055 8.50556 2.64205 8.6772 2.74503C8.84884 2.84801 8.98438 2.98946 9.08381 3.16939C9.18324 3.34813 9.23236 3.5541 9.23118 3.78729C9.23236 4.03232 9.17554 4.25012 9.06072 4.4407C8.94709 4.63009 8.78788 4.77924 8.5831 4.88814C8.3795 4.99586 8.14276 5.04972 7.87287 5.04972Z" fill="white"/>
</svg>
