<svg width="10" height="8" viewBox="0 0 10 8" fill="none" xmlns="http://www.w3.org/2000/svg">
<path d="M4.3667 7.49998C6.07781 7.49998 9.50003 7.09695 9.50003 5.48482C9.50003 3.87269 6.07781 3.73835 4.3667 3.87269" stroke="white" stroke-width="0.5" stroke-linecap="round"/>
<path d="M5.46667 5.3L4 3.83333L5.46667 2" stroke="white" stroke-width="0.5" stroke-linecap="round"/>
<path d="M1.62287 5.04972C1.37192 5.04972 1.1482 5.00355 0.951705 4.91122C0.756392 4.81889 0.601326 4.69164 0.486506 4.52947C0.371686 4.36731 0.311908 4.18146 0.307173 3.97195H1.05291C1.0612 4.11281 1.12038 4.22704 1.23047 4.31463C1.34055 4.40223 1.47135 4.44602 1.62287 4.44602C1.74361 4.44602 1.85014 4.41939 1.94247 4.36612C2.03598 4.31167 2.10878 4.23651 2.16087 4.14062C2.21413 4.04356 2.24077 3.93229 2.24077 3.80682C2.24077 3.67898 2.21354 3.56652 2.15909 3.46946C2.10582 3.3724 2.03184 3.29664 1.93714 3.24219C1.84245 3.18774 1.73414 3.15992 1.61222 3.15874C1.50568 3.15874 1.40211 3.18063 1.30149 3.22443C1.20206 3.26823 1.12453 3.32801 1.06889 3.40376L0.385298 3.28125L0.557528 1.36364H2.78054V1.99219H1.19141L1.0973 2.90305H1.11861C1.18253 2.81309 1.279 2.73852 1.40803 2.67933C1.53705 2.62015 1.68146 2.59055 1.84126 2.59055C2.06025 2.59055 2.25556 2.64205 2.4272 2.74503C2.59884 2.84801 2.73438 2.98946 2.83381 3.16939C2.93324 3.34813 2.98236 3.5541 2.98118 3.78729C2.98236 4.03232 2.92554 4.25012 2.81072 4.4407C2.69709 4.63009 2.53788 4.77924 2.3331 4.88814C2.1295 4.99586 1.89276 5.04972 1.62287 5.04972Z" fill="white"/>
</svg>
