<svg width="7" height="7" viewBox="0 0 7 7" fill="none" xmlns="http://www.w3.org/2000/svg">
<g clip-path="url(#clip0_191_13)">
<path d="M0.583333 1.74999C0.428624 1.74999 0.280251 1.81144 0.170854 1.92084C0.0614582 2.03024 0 2.17861 0 2.33332L0 4.66665C0 4.82136 0.0614582 4.96974 0.170854 5.07913C0.280251 5.18853 0.428624 5.24999 0.583333 5.24999H1.4L3.5 6.99328V0.00494385L1.4 1.74999H0.583333Z" fill="white"/>
<path d="M5.8335 3.50002C5.83303 3.11339 5.67924 2.74272 5.40585 2.46933C5.13246 2.19594 4.76179 2.04215 4.37516 2.04169H4.0835V2.62502H4.37516C4.60723 2.62502 4.82979 2.71721 4.99388 2.8813C5.15798 3.0454 5.25016 3.26796 5.25016 3.50002C5.25016 3.73208 5.15798 3.95464 4.99388 4.11874C4.82979 4.28283 4.60723 4.37502 4.37516 4.37502H4.0835V4.95835H4.37516C4.76179 4.95789 5.13246 4.8041 5.40585 4.53071C5.67924 4.25732 5.83303 3.88665 5.8335 3.50002Z" fill="white"/>
<path d="M4.37516 0.875H4.0835V1.45833H4.37516C4.91665 1.45833 5.43595 1.67344 5.81884 2.05632C6.20173 2.43921 6.41683 2.95852 6.41683 3.5C6.41683 4.04148 6.20173 4.56079 5.81884 4.94368C5.43595 5.32656 4.91665 5.54167 4.37516 5.54167H4.0835V6.125H4.37516C5.07136 6.125 5.73904 5.84844 6.23132 5.35615C6.7236 4.86387 7.00016 4.19619 7.00016 3.5C7.00016 2.80381 6.7236 2.13613 6.23132 1.64384C5.73904 1.15156 5.07136 0.875 4.37516 0.875Z" fill="white"/>
</g>
<defs>
<clipPath id="clip0_191_13">
<rect width="7" height="7" fill="white"/>
</clipPath>
</defs>
</svg>
