<svg width="116" height="35" viewBox="0 0 116 35" fill="none" xmlns="http://www.w3.org/2000/svg">
<g clip-path="url(#clip0_171_123)">
<path d="M1.76015 16.5659L15.7675 1.08829C15.957 0.878891 16.2174 0.760742 16.4893 0.760742H16.5901H26.2887C26.8445 0.760742 27.2951 1.24461 27.2951 1.8415V9.52625C27.2951 9.88202 27.1321 10.215 26.8592 10.4166L17.8465 17.0754C17.2515 17.515 17.2686 18.4646 17.8791 18.8792L26.8267 24.956C27.1183 25.1542 27.2951 25.4989 27.2951 25.8694V32.3974C27.2951 32.9943 26.8445 33.4781 26.2887 33.4781H16.0115C15.738 33.4781 15.4764 33.3587 15.2867 33.1473L1.75716 18.069C1.38041 17.6492 1.38173 16.9841 1.76015 16.5659Z" stroke="#D6D6D6"/>
<path d="M3.24133 16.5479L15.9751 2.60927C16.6092 1.91511 17.7049 2.39929 17.7049 3.37368V31.6255C17.7049 32.6069 16.5958 33.0878 15.9657 32.3796L3.232 18.0664C2.85348 17.641 2.85761 16.968 3.24133 16.5479Z" fill="#D9D9D9"/>
<path d="M29.5082 0.760742L43.9706 16.6621C44.3583 17.0883 44.3597 17.7646 43.9738 18.1926L29.5082 34.239" stroke="#FF410D" stroke-linecap="round"/>
</g>
<path d="M57.5477 27L52.1961 12.4492H54.1297L57.2156 21.1113C57.3914 21.5996 57.6095 22.2539 57.8699 23.0742C58.1368 23.8945 58.4526 24.9102 58.8172 26.1211H58.4266C58.7846 24.8906 59.0939 23.8717 59.3543 23.0645C59.6147 22.2507 59.8296 21.5996 59.9988 21.1113L63.0164 12.4492H64.95L59.657 27H57.5477ZM69.5805 27V21.0332L64.2289 12.4492H66.348L69.2387 17.1465C69.5577 17.6608 69.8441 18.1589 70.098 18.6406C70.3585 19.1159 70.6221 19.6888 70.8891 20.3594H70.1469C70.4138 19.6758 70.6742 19.0931 70.9281 18.6113C71.1885 18.1296 71.4685 17.6413 71.768 17.1465L74.6488 12.4492H76.768L71.4164 21.0332V27H69.5805ZM77.2969 27V12.4492H79.4453L85.3828 21.7949C85.5326 22.0228 85.7148 22.3223 85.9297 22.6934C86.1445 23.0579 86.3757 23.4681 86.623 23.9238C86.877 24.3796 87.1243 24.8613 87.3652 25.3691L87.1211 25.4473C87.0755 24.9329 87.0397 24.4251 87.0137 23.9238C86.9941 23.4225 86.9811 22.9603 86.9746 22.5371C86.9681 22.1074 86.9648 21.7559 86.9648 21.4824V12.4492H88.791V27H86.623L81.3398 18.6895C81.1185 18.3379 80.8841 17.9603 80.6367 17.5566C80.3958 17.153 80.1159 16.6745 79.7969 16.1211C79.4844 15.5677 79.1068 14.9004 78.6641 14.1191L78.9766 14.0117C79.0091 14.7409 79.0352 15.4115 79.0547 16.0234C79.0807 16.6289 79.1003 17.1562 79.1133 17.6055C79.1263 18.0547 79.1328 18.4095 79.1328 18.6699V27H77.2969ZM89.3785 27L95.0621 18.875V20.2324L89.7008 12.4492H91.8199L93.9293 15.5449C94.2223 15.9681 94.4664 16.3359 94.6617 16.6484C94.8635 16.9609 95.0523 17.2702 95.2281 17.5762C95.4039 17.8757 95.596 18.224 95.8043 18.6211H95.4918C95.7001 18.2305 95.8922 17.8854 96.068 17.5859C96.2438 17.2799 96.4358 16.9707 96.6441 16.6582C96.8525 16.3392 97.0999 15.9681 97.3863 15.5449L99.5348 12.4492H101.615L96.2535 20.1543V18.8066L101.879 27H99.7691L97.2105 23.2988C96.9566 22.9147 96.732 22.5794 96.5367 22.293C96.3479 22 96.1689 21.7103 95.9996 21.4238C95.8303 21.1309 95.6448 20.7923 95.443 20.4082H95.8434C95.648 20.7728 95.4625 21.1016 95.2867 21.3945C95.1109 21.6875 94.9254 21.9805 94.7301 22.2734C94.5348 22.5664 94.3036 22.9082 94.0367 23.2988L91.4586 27H89.3785ZM101.255 27L106.939 18.875V20.2324L101.577 12.4492H103.696L105.806 15.5449C106.099 15.9681 106.343 16.3359 106.538 16.6484C106.74 16.9609 106.929 17.2702 107.105 17.5762C107.28 17.8757 107.473 18.224 107.681 18.6211H107.368C107.577 18.2305 107.769 17.8854 107.945 17.5859C108.12 17.2799 108.312 16.9707 108.521 16.6582C108.729 16.3392 108.976 15.9681 109.263 15.5449L111.411 12.4492H113.491L108.13 20.1543V18.8066L113.755 27H111.646L109.087 23.2988C108.833 22.9147 108.609 22.5794 108.413 22.293C108.224 22 108.045 21.7103 107.876 21.4238C107.707 21.1309 107.521 20.7923 107.32 20.4082H107.72C107.525 20.7728 107.339 21.1016 107.163 21.3945C106.987 21.6875 106.802 21.9805 106.607 22.2734C106.411 22.5664 106.18 22.9082 105.913 23.2988L103.335 27H101.255Z" fill="white"/>
<defs>
<clipPath id="clip0_171_123">
<rect width="45" height="35" fill="white"/>
</clipPath>
</defs>
</svg>
