<svg width="18" height="18" viewBox="0 0 18 18" fill="none" xmlns="http://www.w3.org/2000/svg">
<g clip-path="url(#clip0_157_102)">
<path fill-rule="evenodd" clip-rule="evenodd" d="M15.3472 2.616C13.6627 0.93 11.4232 0.00075 9.03748 0C4.12123 0 0.119975 4.0005 0.117725 8.919C0.116975 10.491 0.527975 12.0255 1.30872 13.3785L0.0427246 18L4.77072 16.7595C6.07348 17.4705 7.54047 17.8448 9.03297 17.8455H9.03673C13.9522 17.8455 17.9542 13.8443 17.9565 8.92575C17.958 6.543 17.031 4.30125 15.3472 2.616ZM9.03748 16.3387H9.03447C7.70397 16.3387 6.39972 15.981 5.26122 15.3052L4.99047 15.1448L2.18472 15.8805L2.93397 13.1445L2.75772 12.864C2.01522 11.6835 1.62372 10.3193 1.62447 8.919C1.62597 4.8315 4.95223 1.506 9.04123 1.506C11.0212 1.506 12.8827 2.2785 14.2822 3.6795C15.6817 5.08125 16.452 6.9435 16.4512 8.92425C16.449 13.0133 13.1235 16.3387 9.03748 16.3387ZM13.104 10.7865C12.8812 10.6747 11.7855 10.1355 11.5807 10.0612C11.3767 9.987 11.2282 9.9495 11.079 10.1722C10.9297 10.395 10.5037 10.8975 10.3732 11.0468C10.2435 11.1953 10.113 11.214 9.89023 11.1023C9.66748 10.9905 8.94898 10.7558 8.09773 9.996C7.43548 9.405 6.98773 8.67525 6.85798 8.45175C6.72823 8.22825 6.84448 8.10825 6.95548 7.99725C7.05598 7.8975 7.17823 7.737 7.28998 7.6065C7.40248 7.4775 7.43923 7.3845 7.51423 7.23525C7.58848 7.08675 7.55173 6.95625 7.49548 6.8445C7.43923 6.7335 6.99373 5.63625 6.80848 5.19C6.62773 4.755 6.44398 4.81425 6.30673 4.8075C6.17698 4.80075 6.02848 4.8 5.87923 4.8C5.73073 4.8 5.48922 4.8555 5.28522 5.079C5.08122 5.3025 4.50522 5.84175 4.50522 6.93825C4.50522 8.0355 5.30397 9.09525 5.41497 9.24375C5.52597 9.39225 6.98622 11.6438 9.22197 12.609C9.75372 12.8385 10.1692 12.9757 10.4925 13.0785C11.0265 13.248 11.5125 13.224 11.8965 13.167C12.3247 13.1032 13.215 12.6277 13.401 12.1072C13.587 11.5867 13.587 11.1397 13.5307 11.0475C13.4752 10.9537 13.3267 10.8982 13.104 10.7865Z" fill="white"/>
</g>
<defs>
<clipPath id="clip0_157_102">
<rect width="18" height="18" fill="white"/>
</clipPath>
</defs>
</svg>
